<mxfile host="65bd71144e">
    <diagram name="Page-1" id="D4vrXl0YWCkqL4SjOQcI">
        <mxGraphModel dx="976" dy="770" grid="1" gridSize="10" guides="1" tooltips="1" connect="1" arrows="1" fold="1" page="1" pageScale="1" pageWidth="827" pageHeight="1169" math="0" shadow="0">
            <root>
                <mxCell id="0"/>
                <mxCell id="1" parent="0"/>
                <mxCell id="aO7zpqdWf1EIJi9KeGvh-2" value="Ethereum Blockchain&lt;br&gt;&lt;br&gt;&lt;br&gt;&lt;br&gt;&lt;br&gt;&lt;br&gt;" style="rounded=0;whiteSpace=wrap;html=1;align=center;" parent="1" vertex="1" connectable="0">
                    <mxGeometry x="120" width="480" height="120" as="geometry"/>
                </mxCell>
                <mxCell id="aO7zpqdWf1EIJi9KeGvh-4" value="Proxy" style="rounded=0;whiteSpace=wrap;html=1;" parent="1" vertex="1" connectable="0">
                    <mxGeometry x="280" y="300" width="160" height="80" as="geometry"/>
                </mxCell>
                <mxCell id="aO7zpqdWf1EIJi9KeGvh-5" value="Home Assistant" style="rounded=0;whiteSpace=wrap;html=1;" parent="1" vertex="1" connectable="0">
                    <mxGeometry x="550" y="210" width="160" height="80" as="geometry"/>
                </mxCell>
                <mxCell id="2" value="&amp;nbsp; &amp;nbsp; &amp;nbsp; Property Registry" style="html=1;whiteSpace=wrap;container=1;recursiveResize=0;collapsible=0;align=center;" parent="1" vertex="1">
                    <mxGeometry x="120" y="70" width="160" height="50" as="geometry"/>
                </mxCell>
                <mxCell id="3" value="" style="triangle;html=1;whiteSpace=wrap;" parent="2" vertex="1">
                    <mxGeometry x="20" y="10" width="20" height="30" as="geometry"/>
                </mxCell>
                <mxCell id="4" value="&amp;nbsp; &amp;nbsp; &amp;nbsp; &amp;nbsp; &amp;nbsp; &amp;nbsp;Booking Managment" style="html=1;whiteSpace=wrap;container=1;recursiveResize=0;collapsible=0;align=center;" parent="1" vertex="1">
                    <mxGeometry x="280" y="70" width="160" height="50" as="geometry"/>
                </mxCell>
                <mxCell id="5" value="" style="triangle;html=1;whiteSpace=wrap;" parent="4" vertex="1">
                    <mxGeometry x="20" y="10" width="20" height="30" as="geometry"/>
                </mxCell>
                <mxCell id="6" value="User Registry" style="html=1;whiteSpace=wrap;container=1;recursiveResize=0;collapsible=0;align=center;" parent="1" vertex="1">
                    <mxGeometry x="440" y="70" width="160" height="50" as="geometry"/>
                </mxCell>
                <mxCell id="7" value="" style="triangle;html=1;whiteSpace=wrap;" parent="6" vertex="1">
                    <mxGeometry x="20" y="10" width="20" height="30" as="geometry"/>
                </mxCell>
                <mxCell id="8" value="Data request" style="endArrow=classic;html=1;entryX=0.5;entryY=1;entryDx=0;entryDy=0;align=right;" parent="1" target="2" edge="1">
                    <mxGeometry width="50" height="50" relative="1" as="geometry">
                        <mxPoint x="360" y="240" as="sourcePoint"/>
                        <mxPoint x="560" y="150" as="targetPoint"/>
                    </mxGeometry>
                </mxCell>
                <mxCell id="9" value="Event Subscriber" style="endArrow=classic;html=1;entryX=0.5;entryY=1;entryDx=0;entryDy=0;" parent="1" target="4" edge="1">
                    <mxGeometry width="50" height="50" relative="1" as="geometry">
                        <mxPoint x="360" y="240" as="sourcePoint"/>
                        <mxPoint x="440" y="120" as="targetPoint"/>
                    </mxGeometry>
                </mxCell>
                <mxCell id="10" value="Post request" style="endArrow=classic;html=1;" parent="1" edge="1">
                    <mxGeometry width="50" height="50" relative="1" as="geometry">
                        <mxPoint x="440" y="339.5" as="sourcePoint"/>
                        <mxPoint x="550" y="250" as="targetPoint"/>
                    </mxGeometry>
                </mxCell>
                <mxCell id="11" value="Data request" style="endArrow=classic;html=1;entryX=0.5;entryY=1;entryDx=0;entryDy=0;align=left;" parent="1" target="6" edge="1">
                    <mxGeometry width="50" height="50" relative="1" as="geometry">
                        <mxPoint x="360" y="240" as="sourcePoint"/>
                        <mxPoint x="210" y="130" as="targetPoint"/>
                    </mxGeometry>
                </mxCell>
                <mxCell id="12" value="" style="outlineConnect=0;dashed=0;verticalLabelPosition=bottom;verticalAlign=top;align=center;html=1;shape=mxgraph.aws3.door_lock;fillColor=#1B1E1F;gradientColor=none;" parent="1" vertex="1">
                    <mxGeometry x="590.25" y="350.5" width="79.5" height="79.5" as="geometry"/>
                </mxCell>
                <mxCell id="13" value="" style="endArrow=classic;html=1;" parent="1" target="12" edge="1">
                    <mxGeometry width="50" height="50" relative="1" as="geometry">
                        <mxPoint x="630" y="290" as="sourcePoint"/>
                        <mxPoint x="470" y="290" as="targetPoint"/>
                    </mxGeometry>
                </mxCell>
                <mxCell id="14" value="&lt;font style=&quot;background-color: rgb(252, 252, 252);&quot; color=&quot;#000000&quot;&gt;Door lock&lt;/font&gt;" style="text;strokeColor=none;align=center;fillColor=none;html=1;verticalAlign=middle;whiteSpace=wrap;rounded=0;" parent="1" vertex="1">
                    <mxGeometry x="550" y="400" width="60" height="30" as="geometry"/>
                </mxCell>
                <mxCell id="15" value="Infura" style="rounded=0;whiteSpace=wrap;html=1;" vertex="1" connectable="0" parent="1">
                    <mxGeometry x="330" y="240" width="70" height="30" as="geometry"/>
                </mxCell>
                <mxCell id="16" value="" style="endArrow=classic;html=1;" edge="1" parent="1">
                    <mxGeometry x="-1" y="10" width="50" height="50" relative="1" as="geometry">
                        <mxPoint x="360" y="300" as="sourcePoint"/>
                        <mxPoint x="360" y="270" as="targetPoint"/>
                        <mxPoint as="offset"/>
                    </mxGeometry>
                </mxCell>
            </root>
        </mxGraphModel>
    </diagram>
</mxfile>